<?xml version="1.0" encoding="utf-8"?>
<!-- Generator: Adobe Illustrator 16.0.0, SVG Export Plug-In . SVG Version: 6.00 Build 0)  -->
<!DOCTYPE svg PUBLIC "-//W3C//DTD SVG 1.1//EN" "http://www.w3.org/Graphics/SVG/1.1/DTD/svg11.dtd">
<svg version="1.1" xmlns="http://www.w3.org/2000/svg" xmlns:xlink="http://www.w3.org/1999/xlink" x="0px" y="0px" width="240px"
	 height="64px" viewBox="0 0 240 64" enable-background="new 0 0 240 64" xml:space="preserve">
<g id="Layer_1">
	<defs>
		<filter id="Adobe_OpacityMaskFilter" filterUnits="userSpaceOnUse" x="0" y="0" width="240" height="48">
			<feColorMatrix  type="matrix" values="1 0 0 0 0  0 1 0 0 0  0 0 1 0 0  0 0 0 1 0"/>
		</filter>
	</defs>
	<mask maskUnits="userSpaceOnUse" x="0" y="0" width="240" height="48" id="SVGID_1_">
		<g filter="url(#Adobe_OpacityMaskFilter)">
		</g>
	</mask>
	<rect mask="url(#SVGID_1_)" fill="#FFFFFF" width="240" height="48"/>
</g>
<g id="Layer_2">
	<g id="scheme" display="none">
		<g display="inline">
			
				<polygon fill="none" stroke="#231F20" stroke-width="1.6536" stroke-linecap="round" stroke-linejoin="round" stroke-miterlimit="10" points="
				12.378,6.095 7.743,8.848 2.988,6.095 7.743,3.211 			"/>
			
				<line fill="none" stroke="#231F20" stroke-width="1.6536" stroke-linecap="round" stroke-linejoin="round" stroke-miterlimit="10" x1="7.114" y1="13.976" x2="2.988" y2="11.586"/>
			
				<path fill="none" stroke="#231F20" stroke-width="1.6536" stroke-linecap="round" stroke-linejoin="round" stroke-miterlimit="10" d="
				M12.378,6.095"/>
			
				<line fill="none" stroke="#231F20" stroke-width="1.6536" stroke-linecap="round" stroke-linejoin="round" stroke-miterlimit="10" x1="7.743" y1="8.848" x2="7.743" y2="11.633"/>
			
				<line fill="none" stroke="#231F20" stroke-width="1.6536" stroke-linecap="round" stroke-linejoin="round" stroke-miterlimit="10" x1="2.988" y1="6.095" x2="2.988" y2="11.586"/>
		</g>
		<g display="inline">
			
				<polygon fill="none" stroke="#231F20" stroke-width="1.6536" stroke-linecap="round" stroke-linejoin="round" stroke-miterlimit="10" points="
				21.77,6.095 17.135,8.848 12.378,6.095 17.135,3.211 			"/>
			
				<line fill="none" stroke="#231F20" stroke-width="1.6536" stroke-linecap="round" stroke-linejoin="round" stroke-miterlimit="10" x1="21.77" y1="11.586" x2="17.75" y2="14.069"/>
			
				<line fill="none" stroke="#231F20" stroke-width="1.6536" stroke-linecap="round" stroke-linejoin="round" stroke-miterlimit="10" x1="21.77" y1="6.095" x2="21.77" y2="11.586"/>
			
				<line fill="none" stroke="#231F20" stroke-width="1.6536" stroke-linecap="round" stroke-linejoin="round" stroke-miterlimit="10" x1="17.135" y1="8.848" x2="17.135" y2="11.433"/>
			
				<line fill="none" stroke="#231F20" stroke-width="1.6536" stroke-linecap="round" stroke-linejoin="round" stroke-miterlimit="10" x1="12.378" y1="6.095" x2="12.378" y2="8.867"/>
		</g>
		<g display="inline">
			
				<polygon fill="none" stroke="#231F20" stroke-width="1.6536" stroke-linecap="round" stroke-linejoin="round" stroke-miterlimit="10" points="
				17.75,12.016 12.5,15.134 7.114,12.016 12.5,8.75 			"/>
			
				<polyline fill="none" stroke="#231F20" stroke-width="1.6536" stroke-linecap="round" stroke-linejoin="round" stroke-miterlimit="10" points="
				17.75,18.235 12.5,21.351 7.114,18.235 			"/>
			
				<line fill="none" stroke="#231F20" stroke-width="1.6536" stroke-linecap="round" stroke-linejoin="round" stroke-miterlimit="10" x1="17.75" y1="12.016" x2="17.75" y2="18.235"/>
			
				<line fill="none" stroke="#231F20" stroke-width="1.6536" stroke-linecap="round" stroke-linejoin="round" stroke-miterlimit="10" x1="12.5" y1="15.134" x2="12.5" y2="21.351"/>
			
				<line fill="none" stroke="#231F20" stroke-width="1.6536" stroke-linecap="round" stroke-linejoin="round" stroke-miterlimit="10" x1="7.114" y1="12.016" x2="7.114" y2="18.235"/>
		</g>
	</g>
	<g id="scheme_1_">
		<g id="cube_3_">
			
				<polygon fill="none" stroke="#231F20" stroke-width="1.2431" stroke-linecap="round" stroke-linejoin="round" stroke-miterlimit="10" points="
				22.087,3.832 17.956,6.286 13.717,3.832 17.956,1.261 			"/>
			
				<polyline fill="none" stroke="#231F20" stroke-width="1.2431" stroke-linecap="round" stroke-linejoin="round" stroke-miterlimit="10" points="
				22.087,8.727 17.956,11.18 13.717,8.727 			"/>
			
				<line fill="none" stroke="#231F20" stroke-width="1.2431" stroke-linecap="round" stroke-linejoin="round" stroke-miterlimit="10" x1="22.087" y1="3.832" x2="22.087" y2="8.727"/>
			
				<line fill="none" stroke="#231F20" stroke-width="1.2431" stroke-linecap="round" stroke-linejoin="round" stroke-miterlimit="10" x1="17.956" y1="6.286" x2="17.956" y2="11.18"/>
			
				<line fill="none" stroke="#231F20" stroke-width="1.2431" stroke-linecap="round" stroke-linejoin="round" stroke-miterlimit="10" x1="13.717" y1="3.832" x2="13.717" y2="8.727"/>
		</g>
		<g id="cube_1_">
			
				<polygon fill="none" stroke="#231F20" stroke-width="1.2431" stroke-linecap="round" stroke-linejoin="round" stroke-miterlimit="10" points="
				9.714,9.018 5.583,11.473 1.345,9.018 5.583,6.448 			"/>
			
				<polyline fill="none" stroke="#231F20" stroke-width="1.2431" stroke-linecap="round" stroke-linejoin="round" stroke-miterlimit="10" points="
				9.714,13.913 5.583,16.367 1.345,13.913 			"/>
			
				<line fill="none" stroke="#231F20" stroke-width="1.2431" stroke-linecap="round" stroke-linejoin="round" stroke-miterlimit="10" x1="9.714" y1="9.018" x2="9.714" y2="13.913"/>
			
				<line fill="none" stroke="#231F20" stroke-width="1.2431" stroke-linecap="round" stroke-linejoin="round" stroke-miterlimit="10" x1="5.583" y1="11.473" x2="5.583" y2="16.367"/>
			
				<line fill="none" stroke="#231F20" stroke-width="1.2431" stroke-linecap="round" stroke-linejoin="round" stroke-miterlimit="10" x1="1.345" y1="9.018" x2="1.345" y2="13.913"/>
		</g>
		<g id="cube_2_">
			
				<polygon fill="none" stroke="#231F20" stroke-width="1.2431" stroke-linecap="round" stroke-linejoin="round" stroke-miterlimit="10" points="
				22.033,15.569 17.902,18.024 13.663,15.569 17.902,12.999 			"/>
			
				<polyline fill="none" stroke="#231F20" stroke-width="1.2431" stroke-linecap="round" stroke-linejoin="round" stroke-miterlimit="10" points="
				22.033,20.464 17.902,22.918 13.663,20.464 			"/>
			
				<line fill="none" stroke="#231F20" stroke-width="1.2431" stroke-linecap="round" stroke-linejoin="round" stroke-miterlimit="10" x1="22.033" y1="15.569" x2="22.033" y2="20.464"/>
			
				<line fill="none" stroke="#231F20" stroke-width="1.2431" stroke-linecap="round" stroke-linejoin="round" stroke-miterlimit="10" x1="17.902" y1="18.024" x2="17.902" y2="22.918"/>
			
				<line fill="none" stroke="#231F20" stroke-width="1.2431" stroke-linecap="round" stroke-linejoin="round" stroke-miterlimit="10" x1="13.663" y1="15.569" x2="13.663" y2="20.464"/>
		</g>
		
			<line fill="none" stroke="#231F20" stroke-linecap="round" stroke-linejoin="round" stroke-miterlimit="10" x1="15.272" y1="10.269" x2="12.917" y2="12.091"/>
		
			<line fill="none" stroke="#231F20" stroke-linecap="round" stroke-linejoin="round" stroke-miterlimit="10" x1="14.375" y1="14.417" x2="12.917" y2="12.091"/>
		
			<line fill="none" stroke="#231F20" stroke-linecap="round" stroke-linejoin="round" stroke-miterlimit="10" x1="9.714" y1="10.937" x2="12.917" y2="12.091"/>
	</g>
	<g id="dimension">
		
			<polygon fill="none" stroke="#231F20" stroke-width="1.6555" stroke-linecap="round" stroke-linejoin="round" stroke-miterlimit="10" points="
			41.283,11.959 36.159,15.002 30.901,11.959 36.159,8.771 		"/>
		<g>
			<g>
				
					<line fill="none" stroke="#231F20" stroke-width="1.6555" stroke-linecap="round" stroke-linejoin="round" x1="30.901" y1="17.958" x2="26.947" y2="20.306"/>
				<g>
					<polygon fill="#231F20" points="27.207,18.013 27.474,19.993 29.085,21.175 24.397,21.82 					"/>
				</g>
			</g>
		</g>
		<g>
			<g>
				
					<line fill="none" stroke="#231F20" stroke-width="1.6555" stroke-linecap="round" stroke-linejoin="round" x1="41.283" y1="17.958" x2="45.058" y2="20.306"/>
				<g>
					<polygon fill="#231F20" points="42.902,21.131 44.537,19.982 44.845,18.008 47.575,21.872 					"/>
				</g>
			</g>
		</g>
		
			<polyline fill="none" stroke="#231F20" stroke-width="1.6555" stroke-linecap="round" stroke-linejoin="round" stroke-miterlimit="10" points="
			41.283,18.029 36.159,21.075 30.901,18.029 		"/>
		
			<line fill="none" stroke="#231F20" stroke-width="1.6555" stroke-linecap="round" stroke-linejoin="round" stroke-miterlimit="10" x1="41.283" y1="11.959" x2="41.283" y2="18.029"/>
		
			<line fill="none" stroke="#231F20" stroke-width="1.6555" stroke-linecap="round" stroke-linejoin="round" stroke-miterlimit="10" x1="36.159" y1="15.002" x2="36.159" y2="21.075"/>
		
			<line fill="none" stroke="#231F20" stroke-width="1.6555" stroke-linecap="round" stroke-linejoin="round" stroke-miterlimit="10" x1="30.901" y1="11.959" x2="30.901" y2="18.029"/>
		<g>
			<g>
				
					<line fill="none" stroke="#231F20" stroke-width="1.6555" stroke-linecap="round" stroke-linejoin="round" x1="36.159" y1="8.771" x2="36.159" y2="4.894"/>
				<g>
					<polygon fill="#231F20" points="37.999,6.289 36.159,5.507 34.32,6.289 36.159,1.929 					"/>
				</g>
			</g>
		</g>
	</g>
	<g id="cube">
		
			<polygon fill="none" stroke="#231F20" stroke-width="1.6536" stroke-linecap="round" stroke-linejoin="round" stroke-miterlimit="10" points="
			68.511,7.155 60.203,12.091 51.679,7.155 60.203,1.985 		"/>
		
			<polyline fill="none" stroke="#231F20" stroke-width="1.6536" stroke-linecap="round" stroke-linejoin="round" stroke-miterlimit="10" points="
			68.511,16.999 60.203,21.933 51.679,16.999 		"/>
		
			<line fill="none" stroke="#231F20" stroke-width="1.6536" stroke-linecap="round" stroke-linejoin="round" stroke-miterlimit="10" x1="68.511" y1="7.155" x2="68.511" y2="16.999"/>
		
			<line fill="none" stroke="#231F20" stroke-width="1.6536" stroke-linecap="round" stroke-linejoin="round" stroke-miterlimit="10" x1="60.203" y1="12.091" x2="60.203" y2="21.933"/>
		
			<line fill="none" stroke="#231F20" stroke-width="1.6536" stroke-linecap="round" stroke-linejoin="round" stroke-miterlimit="10" x1="51.679" y1="7.155" x2="51.679" y2="16.999"/>
	</g>
	<g id="hierarchy">
		
			<rect x="80.195" y="3.245" fill="none" stroke="#231F20" stroke-width="1.6536" stroke-linecap="round" stroke-linejoin="round" stroke-miterlimit="10" width="7.555" height="6.421"/>
		
			<rect x="74.127" y="17.043" fill="none" stroke="#231F20" stroke-width="1.6536" stroke-linecap="round" stroke-linejoin="round" stroke-miterlimit="10" width="4.58" height="3.895"/>
		
			<rect x="81.683" y="17.043" fill="none" stroke="#231F20" stroke-width="1.6536" stroke-linecap="round" stroke-linejoin="round" stroke-miterlimit="10" width="4.58" height="3.895"/>
		
			<rect x="89.238" y="17.043" fill="none" stroke="#231F20" stroke-width="1.6536" stroke-linecap="round" stroke-linejoin="round" stroke-miterlimit="10" width="4.58" height="3.895"/>
		
			<line fill="none" stroke="#231F20" stroke-width="1.6536" stroke-linecap="round" stroke-linejoin="round" stroke-miterlimit="10" x1="76.418" y1="13.288" x2="91.528" y2="13.288"/>
		
			<line fill="none" stroke="#231F20" stroke-width="1.6536" stroke-linecap="round" stroke-linejoin="round" stroke-miterlimit="10" x1="91.528" y1="13.288" x2="91.528" y2="16.999"/>
		
			<line fill="none" stroke="#231F20" stroke-width="1.6536" stroke-linecap="round" stroke-linejoin="round" stroke-miterlimit="10" x1="83.973" y1="9.667" x2="83.973" y2="16.999"/>
		
			<line fill="none" stroke="#231F20" stroke-width="1.6536" stroke-linecap="round" stroke-linejoin="round" stroke-miterlimit="10" x1="76.418" y1="13.288" x2="76.418" y2="16.999"/>
	</g>
	<g id="measure">
		
			<polygon fill="none" stroke="#231F20" stroke-width="1.6536" stroke-linecap="round" stroke-linejoin="round" stroke-miterlimit="10" points="
			161.884,22.051 146.707,6.879 151.457,2.131 166.636,17.304 		"/>
		
			<line fill="none" stroke="#231F20" stroke-width="1.6536" stroke-linecap="round" stroke-linejoin="round" stroke-miterlimit="10" x1="154.055" y1="9.476" x2="151.68" y2="11.849"/>
		
			<line fill="none" stroke="#231F20" stroke-width="1.6536" stroke-linecap="round" stroke-linejoin="round" stroke-miterlimit="10" x1="149.528" y1="7.327" x2="148.34" y2="8.511"/>
		
			<line fill="none" stroke="#231F20" stroke-width="1.6536" stroke-linecap="round" stroke-linejoin="round" stroke-miterlimit="10" x1="151.195" y1="8.992" x2="150.008" y2="10.178"/>
		
			<line fill="none" stroke="#231F20" stroke-width="1.6536" stroke-linecap="round" stroke-linejoin="round" stroke-miterlimit="10" x1="154.648" y1="12.445" x2="153.461" y2="13.632"/>
		
			<line fill="none" stroke="#231F20" stroke-width="1.6536" stroke-linecap="round" stroke-linejoin="round" stroke-miterlimit="10" x1="156.317" y1="14.11" x2="155.129" y2="15.301"/>
		
			<line fill="none" stroke="#231F20" stroke-width="1.6536" stroke-linecap="round" stroke-linejoin="round" stroke-miterlimit="10" x1="159.872" y1="17.666" x2="158.685" y2="18.854"/>
		
			<line fill="none" stroke="#231F20" stroke-width="1.6536" stroke-linecap="round" stroke-linejoin="round" stroke-miterlimit="10" x1="161.54" y1="19.332" x2="160.352" y2="20.52"/>
		
			<line fill="none" stroke="#231F20" stroke-width="1.6536" stroke-linecap="round" stroke-linejoin="round" stroke-miterlimit="10" x1="159.286" y1="14.707" x2="156.911" y2="17.082"/>
	</g>
	<g id="level">
		
			<rect x="101.538" y="7.667" fill="none" stroke="#231F20" stroke-width="1.6536" stroke-linecap="round" stroke-linejoin="round" stroke-miterlimit="10" width="10.363" height="4.429"/>
		
			<rect x="98.467" y="3.238" fill="none" stroke="#231F20" stroke-width="1.6536" stroke-linecap="round" stroke-linejoin="round" stroke-miterlimit="10" width="10.363" height="4.429"/>
		
			<rect x="104.587" y="12.095" fill="none" stroke="#231F20" stroke-width="1.6536" stroke-linecap="round" stroke-linejoin="round" stroke-miterlimit="10" width="10.364" height="4.428"/>
		
			<rect x="107.518" y="16.523" fill="none" stroke="#231F20" stroke-width="1.6536" stroke-linecap="round" stroke-linejoin="round" stroke-miterlimit="10" width="10.363" height="4.429"/>
	</g>
	<g id="attr">
		<g id="level_1_">
			
				<rect x="126.963" y="5.358" fill="none" stroke="#231F20" stroke-width="1.2098" stroke-linecap="round" stroke-linejoin="round" stroke-miterlimit="10" width="7.582" height="3.24"/>
			
				<rect x="129.697" y="8.598" fill="none" stroke="#231F20" stroke-width="1.2098" stroke-linecap="round" stroke-linejoin="round" stroke-miterlimit="10" width="7.582" height="3.24"/>
			
				<rect x="132.298" y="11.838" fill="none" stroke="#231F20" stroke-width="1.2098" stroke-linecap="round" stroke-linejoin="round" stroke-miterlimit="10" width="7.583" height="3.238"/>
		</g>
		
			<rect x="138.235" y="2.131" fill="#231F20" stroke="#231F20" stroke-width="0.6757" stroke-linecap="round" stroke-linejoin="round" stroke-miterlimit="10" width="4.645" height="4.645"/>
		
			<rect x="121.923" y="11.546" fill="#231F20" stroke="#231F20" stroke-width="0.6757" stroke-linecap="round" stroke-linejoin="round" stroke-miterlimit="10" width="4.645" height="4.645"/>
		
			<rect x="129.976" y="18.615" fill="#231F20" stroke="#231F20" stroke-width="0.6757" stroke-linecap="round" stroke-linejoin="round" stroke-miterlimit="10" width="4.645" height="4.645"/>
		
			<line fill="none" stroke="#231F20" stroke-width="0.6092" stroke-linecap="round" stroke-linejoin="round" stroke-miterlimit="10" x1="138.401" y1="6.248" x2="136.09" y2="8.598"/>
		
			<line fill="none" stroke="#231F20" stroke-width="0.6092" stroke-linecap="round" stroke-linejoin="round" stroke-miterlimit="10" x1="132.581" y1="18.615" x2="133.488" y2="15.042"/>
		
			<line fill="none" stroke="#231F20" stroke-width="0.6092" stroke-linecap="round" stroke-linejoin="round" stroke-miterlimit="10" x1="125.506" y1="14.203" x2="130.367" y2="11.546"/>
	</g>
	<g id="attribute" display="none">
		<defs>
			<filter id="Adobe_OpacityMaskFilter_1_" filterUnits="userSpaceOnUse" x="122.272" y="1.96" width="5.249" height="5.25">
				<feFlood  style="flood-color:white;flood-opacity:1" result="back"/>
				<feBlend  in="SourceGraphic" in2="back" mode="normal"/>
			</filter>
		</defs>
		<mask maskUnits="userSpaceOnUse" x="122.272" y="1.96" width="5.249" height="5.25" id="SVGID_2_" display="inline">
			<g filter="url(#Adobe_OpacityMaskFilter_1_)">
				<rect x="124.85" y="4.68" fill="#231F20" width="4.345" height="4.533"/>
			</g>
		</mask>
		
			<rect x="122.772" y="2.46" display="inline" mask="url(#SVGID_2_)" fill="none" stroke="#231F20" stroke-linecap="round" stroke-linejoin="round" stroke-miterlimit="10" width="4.249" height="4.25"/>
		
			<rect x="124.85" y="4.917" display="inline" fill="none" stroke="#231F20" stroke-width="1.6536" stroke-linecap="round" stroke-linejoin="round" stroke-miterlimit="10" width="15.488" height="15.488"/>
		
			<line display="inline" fill="none" stroke="#231F20" stroke-linecap="round" stroke-linejoin="round" stroke-miterlimit="10" x1="131.461" y1="4.917" x2="131.461" y2="20.404"/>
		
			<line display="inline" fill="none" stroke="#231F20" stroke-linecap="round" stroke-linejoin="round" stroke-miterlimit="10" x1="124.85" y1="8.883" x2="140.338" y2="8.883"/>
		
			<line display="inline" fill="none" stroke="#231F20" stroke-linecap="round" stroke-linejoin="round" stroke-miterlimit="10" x1="124.85" y1="12.912" x2="140.338" y2="12.912"/>
		
			<line display="inline" fill="none" stroke="#231F20" stroke-linecap="round" stroke-linejoin="round" stroke-miterlimit="10" x1="124.85" y1="16.627" x2="140.338" y2="16.627"/>
	</g>
	<path id="export" fill="#231F20" d="M204.009,12.669h2.313V8.042h3.471l-4.627-4.628l-4.627,4.628h3.47V12.669z M207.479,10.066
		v1.784l5.299,1.975l-7.611,2.838l-7.611-2.838l5.297-1.975v-1.784l-6.941,2.603v4.628l9.256,3.471l9.256-3.471v-4.628
		L207.479,10.066z"/>
	<path id="import" fill="#231F20" d="M179.941,12.427l4.627-4.627h-3.47V3.172h-2.313V7.8h-3.471L179.941,12.427z M184.149,10.535
		l-1.298,1.296l4.701,1.753l-7.611,2.838l-7.611-2.838l4.701-1.753l-1.297-1.296l-5.048,1.892v4.628l9.255,3.471l9.256-3.471v-4.628
		L184.149,10.535z"/>
	<g id="delete">
		
			<line fill="none" stroke="#231F20" stroke-width="1.6536" stroke-linecap="round" stroke-linejoin="round" stroke-miterlimit="10" x1="231.865" y1="6.449" x2="230.573" y2="3.073"/>
		
			<line fill="none" stroke="#231F20" stroke-width="1.6536" stroke-linecap="round" stroke-linejoin="round" stroke-miterlimit="10" x1="230.573" y1="3.073" x2="225.531" y2="3.073"/>
		
			<line fill="none" stroke="#231F20" stroke-width="1.6536" stroke-linecap="round" stroke-linejoin="round" stroke-miterlimit="10" x1="225.531" y1="3.073" x2="224.24" y2="6.449"/>
		
			<line fill="none" stroke="#231F20" stroke-width="1.6536" stroke-linecap="round" stroke-linejoin="round" stroke-miterlimit="10" x1="220.594" y1="6.449" x2="235.422" y2="6.449"/>
		
			<line fill="none" stroke="#231F20" stroke-width="1.6536" stroke-linecap="round" stroke-linejoin="round" stroke-miterlimit="10" x1="221.828" y1="9.766" x2="221.828" y2="21.11"/>
		
			<line fill="none" stroke="#231F20" stroke-width="1.6536" stroke-linecap="round" stroke-linejoin="round" stroke-miterlimit="10" x1="234.25" y1="9.766" x2="234.25" y2="21.11"/>
		
			<line fill="none" stroke="#231F20" stroke-width="1.6536" stroke-linecap="round" stroke-linejoin="round" stroke-miterlimit="10" x1="225.969" y1="9.766" x2="225.969" y2="17.36"/>
		
			<line fill="none" stroke="#231F20" stroke-width="1.6536" stroke-linecap="round" stroke-linejoin="round" stroke-miterlimit="10" x1="230.094" y1="9.766" x2="230.094" y2="17.36"/>
		
			<line fill="none" stroke="#231F20" stroke-width="1.6536" stroke-linecap="round" stroke-linejoin="round" stroke-miterlimit="10" x1="221.828" y1="21.11" x2="234.25" y2="21.11"/>
	</g>
</g>
<g id="Layer_3">
	<g id="measure_1_">
		
			<polygon fill="none" stroke="#353535" stroke-width="1.144" stroke-linecap="round" stroke-linejoin="round" stroke-miterlimit="10" points="
			65.308,45.614 50.131,30.442 54.881,25.693 70.06,40.867 		"/>
		
			<line fill="none" stroke="#353535" stroke-width="1.144" stroke-linecap="round" stroke-linejoin="round" stroke-miterlimit="10" x1="57.479" y1="33.039" x2="55.104" y2="35.412"/>
		
			<line fill="none" stroke="#353535" stroke-width="1.144" stroke-linecap="round" stroke-linejoin="round" stroke-miterlimit="10" x1="52.952" y1="30.89" x2="51.764" y2="32.074"/>
		
			<line fill="none" stroke="#353535" stroke-width="1.144" stroke-linecap="round" stroke-linejoin="round" stroke-miterlimit="10" x1="54.619" y1="32.555" x2="53.432" y2="33.741"/>
		
			<line fill="none" stroke="#353535" stroke-width="1.144" stroke-linecap="round" stroke-linejoin="round" stroke-miterlimit="10" x1="58.072" y1="36.008" x2="56.885" y2="37.195"/>
		
			<line fill="none" stroke="#353535" stroke-width="1.144" stroke-linecap="round" stroke-linejoin="round" stroke-miterlimit="10" x1="59.741" y1="37.673" x2="58.553" y2="38.864"/>
		
			<line fill="none" stroke="#353535" stroke-width="1.144" stroke-linecap="round" stroke-linejoin="round" stroke-miterlimit="10" x1="63.296" y1="41.229" x2="62.108" y2="42.417"/>
		
			<line fill="none" stroke="#353535" stroke-width="1.144" stroke-linecap="round" stroke-linejoin="round" stroke-miterlimit="10" x1="64.964" y1="42.895" x2="63.775" y2="44.083"/>
		
			<line fill="none" stroke="#353535" stroke-width="1.144" stroke-linecap="round" stroke-linejoin="round" stroke-miterlimit="10" x1="62.71" y1="38.27" x2="60.335" y2="40.645"/>
	</g>
	<g id="level_2_">
		
			<rect x="5.971" y="32.836" fill="none" stroke="#353535" stroke-width="1.144" stroke-linecap="round" stroke-linejoin="round" stroke-miterlimit="10" width="12.24" height="5.231"/>
		
			<rect x="2.345" y="27.604" fill="none" stroke="#353535" stroke-width="1.144" stroke-linecap="round" stroke-linejoin="round" stroke-miterlimit="10" width="12.24" height="5.231"/>
		
			<rect x="9.574" y="38.067" fill="none" stroke="#353535" stroke-width="1.144" stroke-linecap="round" stroke-linejoin="round" stroke-miterlimit="10" width="12.241" height="5.229"/>
	</g>
	<g id="level_3_">
		
			<rect x="33.542" y="30.319" fill="none" stroke="#353535" stroke-width="1.144" stroke-linecap="round" stroke-linejoin="round" stroke-miterlimit="10" width="5.231" height="12.24"/>
		
			<rect x="38.773" y="33.945" fill="none" stroke="#353535" stroke-width="1.144" stroke-linecap="round" stroke-linejoin="round" stroke-miterlimit="10" width="5.231" height="12.24"/>
		
			<rect x="28.313" y="26.716" fill="none" stroke="#353535" stroke-width="1.144" stroke-linecap="round" stroke-linejoin="round" stroke-miterlimit="10" width="5.229" height="12.241"/>
	</g>
</g>
<g id="Layer_4">
	<g id="hierarchy_1_">
		
			<rect x="37.198" y="49.96" fill="none" stroke="#353535" stroke-width="1.144" stroke-linecap="round" stroke-linejoin="round" stroke-miterlimit="10" width="5.227" height="4.442"/>
		
			<rect x="33" y="59.505" fill="none" stroke="#353535" stroke-width="1.144" stroke-linecap="round" stroke-linejoin="round" stroke-miterlimit="10" width="3.168" height="2.694"/>
		
			<rect x="38.227" y="59.505" fill="none" stroke="#353535" stroke-width="1.144" stroke-linecap="round" stroke-linejoin="round" stroke-miterlimit="10" width="3.168" height="2.694"/>
		
			<rect x="43.454" y="59.505" fill="none" stroke="#353535" stroke-width="1.144" stroke-linecap="round" stroke-linejoin="round" stroke-miterlimit="10" width="3.168" height="2.694"/>
		
			<line fill="none" stroke="#353535" stroke-width="1.144" stroke-linecap="round" stroke-linejoin="round" stroke-miterlimit="10" x1="34.584" y1="56.907" x2="45.038" y2="56.907"/>
		
			<line fill="none" stroke="#353535" stroke-width="1.144" stroke-linecap="round" stroke-linejoin="round" stroke-miterlimit="10" x1="45.038" y1="56.907" x2="45.038" y2="59.475"/>
		
			<line fill="none" stroke="#353535" stroke-width="1.144" stroke-linecap="round" stroke-linejoin="round" stroke-miterlimit="10" x1="39.811" y1="54.402" x2="39.811" y2="59.475"/>
		
			<line fill="none" stroke="#353535" stroke-width="1.144" stroke-linecap="round" stroke-linejoin="round" stroke-miterlimit="10" x1="34.584" y1="56.907" x2="34.584" y2="59.475"/>
	</g>
	<g id="measure_2_">
		
			<rect x="49.084" y="53.914" transform="matrix(0.7072 0.707 -0.707 0.7072 56.1675 -23.3257)" fill="none" stroke="#353535" stroke-width="1.104" stroke-linecap="round" stroke-linejoin="round" stroke-miterlimit="10" width="14.327" height="4.484"/>
		
			<line fill="none" stroke="#353535" stroke-width="1.104" stroke-linecap="round" stroke-linejoin="round" stroke-miterlimit="10" x1="54.501" y1="54.41" x2="52.916" y2="55.994"/>
		
			<line fill="none" stroke="#353535" stroke-width="1.104" stroke-linecap="round" stroke-linejoin="round" stroke-miterlimit="10" x1="51.48" y1="52.976" x2="50.686" y2="53.767"/>
		
			<line fill="none" stroke="#353535" stroke-width="1.104" stroke-linecap="round" stroke-linejoin="round" stroke-miterlimit="10" x1="52.592" y1="54.087" x2="51.8" y2="54.879"/>
		
			<line fill="none" stroke="#353535" stroke-width="1.104" stroke-linecap="round" stroke-linejoin="round" stroke-miterlimit="10" x1="54.898" y1="56.393" x2="54.105" y2="57.185"/>
		
			<line fill="none" stroke="#353535" stroke-width="1.104" stroke-linecap="round" stroke-linejoin="round" stroke-miterlimit="10" x1="56.013" y1="57.504" x2="55.219" y2="58.299"/>
		
			<line fill="none" stroke="#353535" stroke-width="1.104" stroke-linecap="round" stroke-linejoin="round" stroke-miterlimit="10" x1="58.386" y1="59.878" x2="57.593" y2="60.671"/>
		
			<line fill="none" stroke="#353535" stroke-width="1.104" stroke-linecap="round" stroke-linejoin="round" stroke-miterlimit="10" x1="59.5" y1="60.99" x2="58.705" y2="61.783"/>
		
			<line fill="none" stroke="#353535" stroke-width="1.104" stroke-linecap="round" stroke-linejoin="round" stroke-miterlimit="10" x1="57.995" y1="57.902" x2="56.409" y2="59.488"/>
	</g>
	<g id="level_4_">
		
			<rect x="19.175" y="53.209" fill="none" stroke="#353535" stroke-width="1.1147" stroke-linecap="round" stroke-linejoin="round" stroke-miterlimit="10" width="7.17" height="3.064"/>
		
			<rect x="17.051" y="50.145" fill="none" stroke="#353535" stroke-width="1.1147" stroke-linecap="round" stroke-linejoin="round" stroke-miterlimit="10" width="7.17" height="3.064"/>
		
			<rect x="21.286" y="56.273" fill="none" stroke="#353535" stroke-width="1.1147" stroke-linecap="round" stroke-linejoin="round" stroke-miterlimit="10" width="7.171" height="3.063"/>
		
			<rect x="23.313" y="59.337" fill="none" stroke="#353535" stroke-width="1.1147" stroke-linecap="round" stroke-linejoin="round" stroke-miterlimit="10" width="7.171" height="3.064"/>
	</g>
	<g id="dimension_1_">
		
			<polygon fill="none" stroke="#353535" stroke-width="1.1147" stroke-linecap="round" stroke-linejoin="round" stroke-miterlimit="10" points="
			11.653,55.953 8.203,58.002 4.662,55.953 8.203,53.806 		"/>
		<g>
			<g>
				
					<line fill="none" stroke="#353535" stroke-width="1.1147" stroke-linecap="round" stroke-linejoin="round" x1="4.662" y1="59.992" x2="2" y2="61.572"/>
				<g>
					<polygon fill="#353535" points="2.176,60.028 2.355,61.361 3.44,62.158 0.283,62.591 					"/>
				</g>
			</g>
		</g>
		<g>
			<g>
				
					<line fill="none" stroke="#353535" stroke-width="1.1147" stroke-linecap="round" stroke-linejoin="round" x1="11.653" y1="59.992" x2="14.194" y2="61.572"/>
				<g>
					<polygon fill="#353535" points="12.743,62.128 13.844,61.354 14.051,60.024 15.89,62.626 					"/>
				</g>
			</g>
		</g>
		
			<polyline fill="none" stroke="#353535" stroke-width="1.1147" stroke-linecap="round" stroke-linejoin="round" stroke-miterlimit="10" points="
			11.653,60.04 8.203,62.091 4.662,60.04 		"/>
		
			<line fill="none" stroke="#353535" stroke-width="1.1147" stroke-linecap="round" stroke-linejoin="round" stroke-miterlimit="10" x1="11.653" y1="55.953" x2="11.653" y2="60.04"/>
		
			<line fill="none" stroke="#353535" stroke-width="1.1147" stroke-linecap="round" stroke-linejoin="round" stroke-miterlimit="10" x1="8.203" y1="58.002" x2="8.203" y2="62.091"/>
		
			<line fill="none" stroke="#353535" stroke-width="1.1147" stroke-linecap="round" stroke-linejoin="round" stroke-miterlimit="10" x1="4.662" y1="55.953" x2="4.662" y2="60.04"/>
		<g>
			<g>
				
					<line fill="none" stroke="#353535" stroke-width="1.1147" stroke-linecap="round" stroke-linejoin="round" x1="8.203" y1="53.806" x2="8.203" y2="51.196"/>
				<g>
					<polygon fill="#353535" points="9.441,52.136 8.203,51.609 6.965,52.136 8.203,49.2 					"/>
				</g>
			</g>
		</g>
	</g>
	<polygon fill="#353535" points="70.06,53.52 76.04,56.973 70.06,60.426 	"/>
	<polygon fill="#353535" points="92.691,53.983 89.238,59.964 85.785,53.983 	"/>
	<g>
		
			<line fill="none" stroke="#353535" stroke-width="1.5" stroke-linecap="round" stroke-linejoin="round" stroke-miterlimit="10" x1="117.426" y1="53.52" x2="122.573" y2="58.668"/>
		
			<line fill="none" stroke="#353535" stroke-width="1.5" stroke-linecap="round" stroke-linejoin="round" stroke-miterlimit="10" x1="117.426" y1="58.668" x2="122.574" y2="53.52"/>
	</g>
	
		<polygon fill="none" stroke="#353535" stroke-width="0.9462" stroke-linecap="round" stroke-linejoin="round" stroke-miterlimit="10" points="
		102.754,56.24 99.833,52.309 107.464,52.309 104.495,56.24 	"/>
	
		<polygon fill="none" stroke="#353535" stroke-width="0.9462" stroke-linecap="round" stroke-linejoin="round" stroke-miterlimit="10" points="
		104.495,59.703 102.754,60.418 102.754,56.24 104.495,56.24 	"/>
</g>
</svg>
